<svg width="439" height="439" viewBox="0 0 439 439" fill="none" xmlns="http://www.w3.org/2000/svg">
<g clip-path="url(#clip0)">
<path d="M409.133 109.203C389.525 75.611 362.928 49.014 329.335 29.407C295.736 9.801 259.058 0 219.273 0C179.492 0 142.803 9.801 109.21 29.407C75.615 49.011 49.018 75.608 29.41 109.203C9.801 142.8 0 179.489 0 219.267C0 259.047 9.804 295.73 29.407 329.329C49.014 362.921 75.611 389.518 109.206 409.127C142.803 428.732 179.489 438.534 219.269 438.534C259.049 438.534 295.739 428.732 329.334 409.127C362.927 389.525 389.523 362.921 409.129 329.329C428.732 295.733 438.532 259.045 438.532 219.267C438.533 179.485 428.732 142.795 409.133 109.203ZM361.733 232.111L335.755 258.092L232.405 361.441C228.972 364.871 224.691 366.588 219.553 366.588C214.416 366.588 210.134 364.87 206.706 361.441L180.725 335.461C177.109 331.854 175.301 327.563 175.301 322.614C175.301 317.672 177.11 313.387 180.725 309.767L234.687 255.813H91.363C86.415 255.813 82.134 254 78.516 250.385C74.901 246.772 73.092 242.487 73.092 237.538V200.991C73.092 196.043 74.901 191.76 78.516 188.144C82.133 184.527 86.414 182.718 91.363 182.718H234.688L180.726 128.759C177.298 125.331 175.586 121.051 175.586 115.912C175.586 110.771 177.298 106.492 180.726 103.061L206.707 77.08C210.134 73.655 214.417 71.943 219.554 71.943C224.699 71.943 228.973 73.654 232.406 77.08L335.756 180.436L361.734 206.417C365.166 209.844 366.878 214.124 366.878 219.264C366.877 224.404 365.165 228.686 361.733 232.111Z" fill="#3D59E7"/>
</g>
<defs>
<clipPath id="clip0">
<rect width="438.533" height="438.533" fill="white"/>
</clipPath>
</defs>
</svg>
