<svg width="512" height="512" viewBox="0 0 512 512" fill="none" xmlns="http://www.w3.org/2000/svg">
<path d="M512 256C512 239.916 510.491 223.817 507.503 208.187C506.155 201.112 499.959 195.999 492.767 195.999H257C248.709 195.999 242 202.708 242 210.999V300.999C242 309.29 248.709 315.999 257 315.999H377.967C370.43 331.257 360.043 344.496 347.846 355.634L432.626 440.414C481.407 393.939 512 328.539 512 256Z" fill="#2A3748"/>
<path d="M256 120C285.429 120 313.422 129.346 336.947 147.041C342.894 151.509 351.288 150.967 356.561 145.649L420.575 81.635C423.549 78.661 425.145 74.574 424.955 70.37C424.765 66.166 422.831 62.24 419.608 59.53C373.803 21.138 315.692 0 256 0C168.151 0 90.5421 44.654 44.6631 112.452L132.711 200.5C153.717 153.184 200.979 120 256 120Z" fill="#2A3748"/>
<path d="M256 512C313.263 512 365.993 492.8 408.602 460.813L322.231 374.442C302.489 385.558 279.925 392 256 392C200.979 392 153.717 358.816 132.711 311.5L44.6631 399.548C90.5421 467.346 168.151 512 256 512Z" fill="#2A3748"/>
<path d="M122.184 277.605C121.035 270.526 120 263.397 120 256C120 248.603 121.035 241.474 122.184 234.395L28.06 140.271C10.252 175.051 0 214.316 0 256C0 297.684 10.252 336.949 28.061 371.728L122.184 277.605Z" fill="#2A3748"/>
</svg>
