<svg id="Capa_1" enable-background="new 0 0 512 512" height="512" viewBox="0 0 512 512" width="512" xmlns="http://www.w3.org/2000/svg"><g><g><path d="m470.793 441.433h-429.586c-22.758 0-41.207-18.45-41.207-41.208v-288.45c0-22.758 18.449-41.207 41.207-41.207h429.586c22.758 0 41.207 18.449 41.207 41.207v288.451c0 22.757-18.449 41.207-41.207 41.207z" fill="#60d9a7"/></g><g><path d="m41.207 441.433h215.409c-88.101 0-159.522-71.42-159.522-159.522v-211.344h-55.887c-22.758 0-41.207 18.449-41.207 41.208v288.451c0 22.757 18.449 41.207 41.207 41.207z" fill="#00c67f"/></g><g><path d="m470.793 359.018v-206.036c-22.758 0-41.207-18.449-41.207-41.207h-347.172c0 22.758-18.449 41.207-41.207 41.207v206.036c22.758 0 41.207 18.449 41.207 41.207h347.171c.001-22.758 18.45-41.207 41.208-41.207z" fill="#00c67f"/></g><g><path d="m82.414 400.225h67.206c-32.258-29.19-52.526-71.384-52.526-118.315v-170.135h-14.68c0 22.758-18.449 41.207-41.207 41.207v206.036c22.758 0 41.207 18.449 41.207 41.207z" fill="#00a45b"/></g><g><circle cx="256" cy="256" fill="#60d9a7" r="103.018"/></g><g><circle cx="414.905" cy="256" fill="#60d9a7" r="25.755"/></g><g><circle cx="97.095" cy="256" fill="#60d9a7" r="25.755"/></g><g><path d="m97.095 281.755v-51.509c-14.224 0-25.755 11.531-25.755 25.755s11.531 25.754 25.755 25.754z" fill="#00c67f"/></g><path d="m284.415 235.292h-7.412c-1.273-6.792-4.233-12.995-8.438-18.15h15.85c4.142 0 7.5-3.357 7.5-7.5s-3.358-7.5-7.5-7.5h-56.829c-4.142 0-7.5 3.357-7.5 7.5s3.358 7.5 7.5 7.5h9.472c11.535 0 21.314 7.655 24.529 18.15h-34.001c-4.142 0-7.5 3.357-7.5 7.5s3.358 7.5 7.5 7.5h34.001c-3.216 10.496-12.994 18.15-24.529 18.15h-9.472c-3.135 0-5.939 1.95-7.031 4.889-1.091 2.939-.24 6.247 2.136 8.294l42.622 36.718c1.417 1.22 3.158 1.817 4.892 1.817 2.107 0 4.203-.883 5.686-2.604 2.704-3.139 2.351-7.874-.787-10.578l-28.604-24.642c15.487-3.698 27.556-16.285 30.508-32.044h7.408c4.142 0 7.5-3.357 7.5-7.5s-3.359-7.5-7.501-7.5z" fill="#00a45b"/></g></svg>